<mxfile host="app.diagrams.net" modified="2020-12-24T09:06:06.805Z" agent="5.0 (X11)" etag="ejUmexNknVJeoTW377_a" version="14.1.2" type="github">
  <diagram id="PviDzdVSxs4KkxoJmla6" name="Page-1">
    <mxGraphModel dx="1388" dy="843" grid="1" gridSize="10" guides="1" tooltips="1" connect="1" arrows="1" fold="1" page="1" pageScale="1" pageWidth="827" pageHeight="1169" math="0" shadow="0">
      <root>
        <mxCell id="0" />
        <mxCell id="1" parent="0" />
        <mxCell id="KJfpyNSeo73ol-OsRhbV-1" value="&lt;span style=&quot;color: rgb(0, 0, 0); font-family: &amp;quot;arial&amp;quot;; font-size: 15px; font-style: normal; letter-spacing: normal; text-indent: 0px; text-transform: none; word-spacing: 0px; display: inline; float: none;&quot;&gt;Builder&lt;/span&gt;" style="html=1;fillColor=#d5e8d4;strokeColor=#82b366;sketch=1;labelBackgroundColor=none;fontStyle=1" vertex="1" parent="1">
          <mxGeometry x="40" y="270" width="90" height="40" as="geometry" />
        </mxCell>
        <mxCell id="KJfpyNSeo73ol-OsRhbV-48" value="定义语法" style="edgeStyle=orthogonalEdgeStyle;curved=1;rounded=1;sketch=1;orthogonalLoop=1;jettySize=auto;html=1;exitX=0.5;exitY=0;exitDx=0;exitDy=0;entryX=0.5;entryY=1;entryDx=0;entryDy=0;labelBackgroundColor=none;strokeColor=#788AA3;fillColor=#B2C9AB;fontColor=#000000;" edge="1" parent="1" source="KJfpyNSeo73ol-OsRhbV-2" target="KJfpyNSeo73ol-OsRhbV-24">
          <mxGeometry relative="1" as="geometry" />
        </mxCell>
        <mxCell id="KJfpyNSeo73ol-OsRhbV-51" value="增加操作" style="edgeStyle=orthogonalEdgeStyle;curved=1;rounded=1;sketch=1;orthogonalLoop=1;jettySize=auto;html=1;labelBackgroundColor=none;strokeColor=#788AA3;fillColor=#B2C9AB;fontColor=#000000;" edge="1" parent="1" source="KJfpyNSeo73ol-OsRhbV-2" target="KJfpyNSeo73ol-OsRhbV-35">
          <mxGeometry x="0.3405" y="16" relative="1" as="geometry">
            <mxPoint as="offset" />
          </mxGeometry>
        </mxCell>
        <mxCell id="KJfpyNSeo73ol-OsRhbV-52" value="共享终结符" style="edgeStyle=orthogonalEdgeStyle;curved=1;rounded=1;sketch=1;orthogonalLoop=1;jettySize=auto;html=1;exitX=0;exitY=0.5;exitDx=0;exitDy=0;entryX=0.75;entryY=1;entryDx=0;entryDy=0;labelBackgroundColor=none;strokeColor=#788AA3;fillColor=#B2C9AB;fontColor=#000000;" edge="1" parent="1" source="KJfpyNSeo73ol-OsRhbV-2" target="KJfpyNSeo73ol-OsRhbV-21">
          <mxGeometry x="0.3007" y="-22" relative="1" as="geometry">
            <mxPoint x="1" as="offset" />
          </mxGeometry>
        </mxCell>
        <mxCell id="KJfpyNSeo73ol-OsRhbV-2" value="&lt;span style=&quot;color: rgb(0, 0, 0); font-family: &amp;quot;arial&amp;quot;; font-size: 15px; font-style: normal; letter-spacing: normal; text-indent: 0px; text-transform: none; word-spacing: 0px; display: inline; float: none;&quot;&gt;Interpreter&lt;/span&gt;" style="html=1;fillColor=#f8cecc;strokeColor=#b85450;sketch=1;labelBackgroundColor=none;fontStyle=1" vertex="1" parent="1">
          <mxGeometry x="176.5" y="584" width="90" height="40" as="geometry" />
        </mxCell>
        <mxCell id="KJfpyNSeo73ol-OsRhbV-3" value="Adapter" style="html=1;fillColor=#dae8fc;strokeColor=#6c8ebf;sketch=1;labelBackgroundColor=none;fontStyle=1" vertex="1" parent="1">
          <mxGeometry x="550" y="420" width="90" height="40" as="geometry" />
        </mxCell>
        <mxCell id="KJfpyNSeo73ol-OsRhbV-8" value="" style="group;labelBackgroundColor=none;fontStyle=1" vertex="1" connectable="0" parent="1">
          <mxGeometry x="29" y="60" width="385" height="115" as="geometry" />
        </mxCell>
        <mxCell id="KJfpyNSeo73ol-OsRhbV-7" value="图例" style="shape=umlFrame;whiteSpace=wrap;html=1;rounded=0;labelBackgroundColor=none;sketch=0;strokeColor=#788AA3;fontColor=#46495D;fontStyle=1;shadow=0;fillColor=#E6E6E6;strokeWidth=2;" vertex="1" parent="KJfpyNSeo73ol-OsRhbV-8">
          <mxGeometry width="385" height="115" as="geometry" />
        </mxCell>
        <mxCell id="KJfpyNSeo73ol-OsRhbV-4" value="创建型" style="html=1;fillColor=#d5e8d4;strokeColor=#82b366;sketch=1;labelBackgroundColor=none;fontStyle=1" vertex="1" parent="KJfpyNSeo73ol-OsRhbV-8">
          <mxGeometry x="27.5" y="37.5" width="90" height="40" as="geometry" />
        </mxCell>
        <mxCell id="KJfpyNSeo73ol-OsRhbV-5" value="行为型" style="html=1;fillColor=#f8cecc;strokeColor=#b85450;sketch=1;labelBackgroundColor=none;fontStyle=1" vertex="1" parent="KJfpyNSeo73ol-OsRhbV-8">
          <mxGeometry x="267.5" y="37.5" width="90" height="40" as="geometry" />
        </mxCell>
        <mxCell id="KJfpyNSeo73ol-OsRhbV-6" value="结构型" style="html=1;fillColor=#dae8fc;strokeColor=#6c8ebf;sketch=1;labelBackgroundColor=none;fontStyle=1" vertex="1" parent="KJfpyNSeo73ol-OsRhbV-8">
          <mxGeometry x="147.5" y="37.5" width="90" height="40" as="geometry" />
        </mxCell>
        <mxCell id="KJfpyNSeo73ol-OsRhbV-16" value="&lt;span style=&quot;color: rgb(0, 0, 0); font-family: &amp;quot;arial&amp;quot;; font-size: 15px; font-style: normal; letter-spacing: normal; text-indent: 0px; text-transform: none; word-spacing: 0px; display: inline; float: none;&quot;&gt;Singleton&lt;/span&gt;" style="html=1;fillColor=#d5e8d4;strokeColor=#82b366;sketch=1;labelBackgroundColor=none;fontStyle=1" vertex="1" parent="1">
          <mxGeometry x="320" y="840" width="90" height="40" as="geometry" />
        </mxCell>
        <mxCell id="KJfpyNSeo73ol-OsRhbV-17" value="&lt;span style=&quot;color: rgb(0, 0, 0); font-family: &amp;quot;arial&amp;quot;; font-size: 15px; font-style: normal; letter-spacing: normal; text-indent: 0px; text-transform: none; word-spacing: 0px; display: inline; float: none;&quot;&gt;Prototype&lt;/span&gt;" style="html=1;fillColor=#d5e8d4;strokeColor=#82b366;sketch=1;labelBackgroundColor=none;fontStyle=1" vertex="1" parent="1">
          <mxGeometry x="170" y="850" width="90" height="40" as="geometry" />
        </mxCell>
        <mxCell id="KJfpyNSeo73ol-OsRhbV-63" value="用工厂方法实现" style="edgeStyle=orthogonalEdgeStyle;curved=1;rounded=1;sketch=1;orthogonalLoop=1;jettySize=auto;html=1;exitX=0.25;exitY=1;exitDx=0;exitDy=0;entryX=0.75;entryY=0;entryDx=0;entryDy=0;labelBackgroundColor=none;startArrow=none;startFill=0;strokeColor=#788AA3;fillColor=#B2C9AB;fontColor=#000000;" edge="1" parent="1" source="KJfpyNSeo73ol-OsRhbV-18" target="KJfpyNSeo73ol-OsRhbV-19">
          <mxGeometry relative="1" as="geometry" />
        </mxCell>
        <mxCell id="KJfpyNSeo73ol-OsRhbV-64" value="动态地配置工厂" style="edgeStyle=orthogonalEdgeStyle;curved=1;rounded=1;sketch=1;orthogonalLoop=1;jettySize=auto;html=1;exitX=0.5;exitY=1;exitDx=0;exitDy=0;entryX=0.5;entryY=0;entryDx=0;entryDy=0;labelBackgroundColor=none;startArrow=none;startFill=0;strokeColor=#788AA3;fillColor=#B2C9AB;fontColor=#000000;" edge="1" parent="1" source="KJfpyNSeo73ol-OsRhbV-18" target="KJfpyNSeo73ol-OsRhbV-17">
          <mxGeometry relative="1" as="geometry" />
        </mxCell>
        <mxCell id="KJfpyNSeo73ol-OsRhbV-65" value="单个实例" style="edgeStyle=orthogonalEdgeStyle;curved=1;rounded=1;sketch=1;orthogonalLoop=1;jettySize=auto;html=1;exitX=0.75;exitY=1;exitDx=0;exitDy=0;labelBackgroundColor=none;startArrow=none;startFill=0;strokeColor=#788AA3;fillColor=#B2C9AB;fontColor=#000000;entryX=0.25;entryY=0;entryDx=0;entryDy=0;" edge="1" parent="1" source="KJfpyNSeo73ol-OsRhbV-18" target="KJfpyNSeo73ol-OsRhbV-16">
          <mxGeometry x="0.004" relative="1" as="geometry">
            <mxPoint as="offset" />
          </mxGeometry>
        </mxCell>
        <mxCell id="KJfpyNSeo73ol-OsRhbV-18" value="&lt;span style=&quot;color: rgb(0, 0, 0); font-family: &amp;quot;arial&amp;quot;; font-size: 15px; font-style: normal; letter-spacing: normal; text-indent: 0px; text-transform: none; word-spacing: 0px; display: inline; float: none;&quot;&gt;Abstract Factory&lt;/span&gt;" style="html=1;fillColor=#d5e8d4;strokeColor=#82b366;sketch=1;labelBackgroundColor=none;fontStyle=1" vertex="1" parent="1">
          <mxGeometry x="136.5" y="680" width="130" height="40" as="geometry" />
        </mxCell>
        <mxCell id="KJfpyNSeo73ol-OsRhbV-19" value="&lt;span style=&quot;color: rgb(0, 0, 0); font-family: &amp;quot;arial&amp;quot;; font-size: 15px; font-style: normal; letter-spacing: normal; text-indent: 0px; text-transform: none; word-spacing: 0px; display: inline; float: none;&quot;&gt;Factory Method&lt;/span&gt;" style="html=1;fillColor=#d5e8d4;strokeColor=#82b366;sketch=1;labelBackgroundColor=none;fontStyle=1;" vertex="1" parent="1">
          <mxGeometry x="-50" y="820" width="130" height="40" as="geometry" />
        </mxCell>
        <mxCell id="KJfpyNSeo73ol-OsRhbV-20" value="&lt;span style=&quot;color: rgb(0, 0, 0); font-family: &amp;quot;arial&amp;quot;; font-size: 15px; font-style: normal; letter-spacing: normal; text-indent: 0px; text-transform: none; word-spacing: 0px; display: inline; float: none;&quot;&gt;Proxy&lt;/span&gt;" style="html=1;fillColor=#dae8fc;strokeColor=#6c8ebf;sketch=1;labelBackgroundColor=none;fontStyle=1" vertex="1" parent="1">
          <mxGeometry x="550" y="280" width="90" height="40" as="geometry" />
        </mxCell>
        <mxCell id="KJfpyNSeo73ol-OsRhbV-21" value="&lt;span style=&quot;color: rgb(0, 0, 0); font-family: &amp;quot;arial&amp;quot;; font-size: 15px; font-style: normal; letter-spacing: normal; text-indent: 0px; text-transform: none; word-spacing: 0px; display: inline; float: none;&quot;&gt;Flyweight&lt;/span&gt;" style="html=1;fillColor=#dae8fc;strokeColor=#6c8ebf;sketch=1;labelBackgroundColor=none;fontStyle=1" vertex="1" parent="1">
          <mxGeometry x="60" y="470" width="90" height="40" as="geometry" />
        </mxCell>
        <mxCell id="KJfpyNSeo73ol-OsRhbV-66" value="单个实例" style="edgeStyle=orthogonalEdgeStyle;curved=1;rounded=1;sketch=1;orthogonalLoop=1;jettySize=auto;html=1;exitX=0.5;exitY=1;exitDx=0;exitDy=0;entryX=0.75;entryY=0;entryDx=0;entryDy=0;labelBackgroundColor=none;startArrow=none;startFill=0;strokeColor=#788AA3;fillColor=#B2C9AB;fontColor=#000000;" edge="1" parent="1" source="KJfpyNSeo73ol-OsRhbV-22" target="KJfpyNSeo73ol-OsRhbV-16">
          <mxGeometry relative="1" as="geometry" />
        </mxCell>
        <mxCell id="KJfpyNSeo73ol-OsRhbV-22" value="&lt;span style=&quot;color: rgb(0, 0, 0); font-family: &amp;quot;arial&amp;quot;; font-size: 15px; font-style: normal; letter-spacing: normal; text-indent: 0px; text-transform: none; word-spacing: 0px; display: inline; float: none;&quot;&gt;Facade&lt;/span&gt;" style="html=1;fillColor=#dae8fc;strokeColor=#6c8ebf;sketch=1;labelBackgroundColor=none;fontStyle=1" vertex="1" parent="1">
          <mxGeometry x="401" y="710" width="90" height="40" as="geometry" />
        </mxCell>
        <mxCell id="KJfpyNSeo73ol-OsRhbV-56" value="改变外表" style="edgeStyle=orthogonalEdgeStyle;curved=1;rounded=1;sketch=1;orthogonalLoop=1;jettySize=auto;html=1;exitX=0.25;exitY=1;exitDx=0;exitDy=0;entryX=0.25;entryY=0;entryDx=0;entryDy=0;labelBackgroundColor=none;strokeColor=#788AA3;fillColor=#B2C9AB;fontColor=#000000;" edge="1" parent="1" source="KJfpyNSeo73ol-OsRhbV-23" target="KJfpyNSeo73ol-OsRhbV-34">
          <mxGeometry x="-0.2537" y="-11" relative="1" as="geometry">
            <mxPoint as="offset" />
          </mxGeometry>
        </mxCell>
        <mxCell id="KJfpyNSeo73ol-OsRhbV-23" value="&lt;span style=&quot;color: rgb(0, 0, 0); font-family: &amp;quot;arial&amp;quot;; font-size: 15px; font-style: normal; letter-spacing: normal; text-indent: 0px; text-transform: none; word-spacing: 0px; display: inline; float: none;&quot;&gt;Decorator&lt;/span&gt;" style="html=1;fillColor=#dae8fc;strokeColor=#6c8ebf;sketch=1;labelBackgroundColor=none;fontStyle=1" vertex="1" parent="1">
          <mxGeometry x="-61" y="370" width="90" height="40" as="geometry" />
        </mxCell>
        <mxCell id="KJfpyNSeo73ol-OsRhbV-38" value="枚举子女" style="edgeStyle=orthogonalEdgeStyle;curved=1;rounded=1;sketch=1;orthogonalLoop=1;jettySize=auto;html=1;exitX=1;exitY=0.25;exitDx=0;exitDy=0;strokeColor=#788AA3;fillColor=#B2C9AB;fontColor=#000000;labelBackgroundColor=none;" edge="1" parent="1" source="KJfpyNSeo73ol-OsRhbV-24" target="KJfpyNSeo73ol-OsRhbV-29">
          <mxGeometry relative="1" as="geometry" />
        </mxCell>
        <mxCell id="KJfpyNSeo73ol-OsRhbV-39" value="创建组合" style="edgeStyle=orthogonalEdgeStyle;curved=1;rounded=1;sketch=1;orthogonalLoop=1;jettySize=auto;html=1;exitX=0;exitY=0.25;exitDx=0;exitDy=0;entryX=0.5;entryY=1;entryDx=0;entryDy=0;labelBackgroundColor=none;strokeColor=#788AA3;fillColor=#B2C9AB;fontColor=#000000;" edge="1" parent="1" source="KJfpyNSeo73ol-OsRhbV-24" target="KJfpyNSeo73ol-OsRhbV-1">
          <mxGeometry x="0.0928" y="-26" relative="1" as="geometry">
            <mxPoint y="1" as="offset" />
          </mxGeometry>
        </mxCell>
        <mxCell id="KJfpyNSeo73ol-OsRhbV-47" value="共享组合" style="edgeStyle=orthogonalEdgeStyle;curved=1;rounded=1;sketch=1;orthogonalLoop=1;jettySize=auto;html=1;exitX=0;exitY=0.75;exitDx=0;exitDy=0;entryX=0.5;entryY=0;entryDx=0;entryDy=0;labelBackgroundColor=none;strokeColor=#788AA3;fillColor=#B2C9AB;fontColor=#000000;" edge="1" parent="1" source="KJfpyNSeo73ol-OsRhbV-24" target="KJfpyNSeo73ol-OsRhbV-21">
          <mxGeometry x="0.4085" relative="1" as="geometry">
            <mxPoint as="offset" />
          </mxGeometry>
        </mxCell>
        <mxCell id="KJfpyNSeo73ol-OsRhbV-50" value="增加操作" style="edgeStyle=orthogonalEdgeStyle;curved=1;rounded=1;sketch=1;orthogonalLoop=1;jettySize=auto;html=1;exitX=0.75;exitY=1;exitDx=0;exitDy=0;entryX=0;entryY=0.5;entryDx=0;entryDy=0;labelBackgroundColor=none;strokeColor=#788AA3;fillColor=#B2C9AB;fontColor=#000000;" edge="1" parent="1" source="KJfpyNSeo73ol-OsRhbV-24" target="KJfpyNSeo73ol-OsRhbV-35">
          <mxGeometry x="-0.4702" y="6" relative="1" as="geometry">
            <mxPoint as="offset" />
          </mxGeometry>
        </mxCell>
        <mxCell id="KJfpyNSeo73ol-OsRhbV-55" value="给对象增加职责" style="edgeStyle=orthogonalEdgeStyle;curved=1;rounded=1;sketch=1;orthogonalLoop=1;jettySize=auto;html=1;exitX=0;exitY=0.5;exitDx=0;exitDy=0;labelBackgroundColor=none;strokeColor=#788AA3;fillColor=#B2C9AB;fontColor=#000000;" edge="1" parent="1" source="KJfpyNSeo73ol-OsRhbV-24" target="KJfpyNSeo73ol-OsRhbV-23">
          <mxGeometry relative="1" as="geometry" />
        </mxCell>
        <mxCell id="KJfpyNSeo73ol-OsRhbV-24" value="&lt;span style=&quot;color: rgb(0, 0, 0); font-family: &amp;quot;arial&amp;quot;; font-size: 15px; font-style: normal; letter-spacing: normal; text-indent: 0px; text-transform: none; word-spacing: 0px; display: inline; float: none;&quot;&gt;Composite&lt;/span&gt;" style="html=1;fillColor=#dae8fc;strokeColor=#6c8ebf;sketch=1;labelBackgroundColor=none;fontStyle=1" vertex="1" parent="1">
          <mxGeometry x="176.5" y="370" width="90" height="40" as="geometry" />
        </mxCell>
        <mxCell id="KJfpyNSeo73ol-OsRhbV-25" value="&lt;span style=&quot;color: rgb(0, 0, 0); font-family: &amp;quot;arial&amp;quot;; font-size: 15px; font-style: normal; letter-spacing: normal; text-indent: 0px; text-transform: none; word-spacing: 0px; display: inline; float: none;&quot;&gt;Bridge&lt;/span&gt;" style="html=1;fillColor=#dae8fc;strokeColor=#6c8ebf;sketch=1;labelBackgroundColor=none;fontStyle=1" vertex="1" parent="1">
          <mxGeometry x="550" y="350" width="90" height="40" as="geometry" />
        </mxCell>
        <mxCell id="KJfpyNSeo73ol-OsRhbV-61" value="定义算法步骤" style="edgeStyle=orthogonalEdgeStyle;curved=1;rounded=1;sketch=1;orthogonalLoop=1;jettySize=auto;html=1;exitX=0.5;exitY=0;exitDx=0;exitDy=0;labelBackgroundColor=none;startArrow=none;startFill=0;strokeColor=#788AA3;fillColor=#B2C9AB;fontColor=#000000;" edge="1" parent="1" source="KJfpyNSeo73ol-OsRhbV-26" target="KJfpyNSeo73ol-OsRhbV-34">
          <mxGeometry relative="1" as="geometry" />
        </mxCell>
        <mxCell id="KJfpyNSeo73ol-OsRhbV-62" value="经常使用" style="edgeStyle=orthogonalEdgeStyle;curved=1;rounded=1;sketch=1;orthogonalLoop=1;jettySize=auto;html=1;exitX=0.5;exitY=1;exitDx=0;exitDy=0;entryX=0.5;entryY=0;entryDx=0;entryDy=0;labelBackgroundColor=none;startArrow=none;startFill=0;strokeColor=#788AA3;fillColor=#B2C9AB;fontColor=#000000;" edge="1" parent="1" source="KJfpyNSeo73ol-OsRhbV-26" target="KJfpyNSeo73ol-OsRhbV-19">
          <mxGeometry relative="1" as="geometry" />
        </mxCell>
        <mxCell id="KJfpyNSeo73ol-OsRhbV-26" value="&lt;div&gt;&lt;span style=&quot;color: rgb(0, 0, 0); font-family: &amp;quot;arial&amp;quot;; font-size: 15px; font-style: normal; letter-spacing: normal; text-indent: 0px; text-transform: none; word-spacing: 0px; display: inline; float: none;&quot;&gt;Template&lt;/span&gt;&lt;/div&gt;&lt;div&gt;&lt;span style=&quot;color: rgb(0, 0, 0); font-family: &amp;quot;arial&amp;quot;; font-size: 15px; font-style: normal; letter-spacing: normal; text-indent: 0px; text-transform: none; word-spacing: 0px; display: inline; float: none;&quot;&gt;Method&lt;/span&gt;&lt;/div&gt;" style="html=1;fillColor=#f8cecc;strokeColor=#b85450;sketch=1;labelBackgroundColor=none;fontStyle=1" vertex="1" parent="1">
          <mxGeometry x="-61" y="720" width="90" height="40" as="geometry" />
        </mxCell>
        <mxCell id="KJfpyNSeo73ol-OsRhbV-44" value="定义链" style="edgeStyle=orthogonalEdgeStyle;rounded=1;sketch=1;orthogonalLoop=1;jettySize=auto;html=1;entryX=1;entryY=0.75;entryDx=0;entryDy=0;labelBackgroundColor=none;strokeColor=#788AA3;fillColor=#B2C9AB;fontColor=#000000;exitX=0.25;exitY=0;exitDx=0;exitDy=0;entryPerimeter=0;curved=1;" edge="1" parent="1" source="KJfpyNSeo73ol-OsRhbV-27" target="KJfpyNSeo73ol-OsRhbV-24">
          <mxGeometry x="-0.5648" y="49" relative="1" as="geometry">
            <mxPoint x="440" y="500" as="sourcePoint" />
            <Array as="points">
              <mxPoint x="519" y="400" />
            </Array>
            <mxPoint as="offset" />
          </mxGeometry>
        </mxCell>
        <mxCell id="KJfpyNSeo73ol-OsRhbV-27" value="&lt;div&gt;&lt;span style=&quot;color: rgb(0, 0, 0); font-family: &amp;quot;arial&amp;quot;; font-size: 15px; font-style: normal; letter-spacing: normal; text-indent: 0px; text-transform: none; word-spacing: 0px; display: inline; float: none;&quot;&gt;Chain of &lt;br&gt;&lt;/span&gt;&lt;/div&gt;&lt;div&gt;&lt;span style=&quot;color: rgb(0, 0, 0); font-family: &amp;quot;arial&amp;quot;; font-size: 15px; font-style: normal; letter-spacing: normal; text-indent: 0px; text-transform: none; word-spacing: 0px; display: inline; float: none;&quot;&gt;Responsibility&lt;/span&gt;&lt;/div&gt;" style="html=1;fillColor=#f8cecc;strokeColor=#b85450;sketch=1;labelBackgroundColor=none;fontStyle=1" vertex="1" parent="1">
          <mxGeometry x="491" y="534" width="110" height="50" as="geometry" />
        </mxCell>
        <mxCell id="KJfpyNSeo73ol-OsRhbV-28" value="&lt;span style=&quot;color: rgb(0, 0, 0); font-family: &amp;quot;arial&amp;quot;; font-size: 15px; font-style: normal; letter-spacing: normal; text-indent: 0px; text-transform: none; word-spacing: 0px; display: inline; float: none;&quot;&gt;Memento&lt;/span&gt;" style="html=1;fillColor=#f8cecc;strokeColor=#b85450;sketch=1;labelBackgroundColor=none;fontStyle=1" vertex="1" parent="1">
          <mxGeometry x="369" y="270" width="90" height="40" as="geometry" />
        </mxCell>
        <mxCell id="KJfpyNSeo73ol-OsRhbV-40" value="保存迭代状态" style="edgeStyle=orthogonalEdgeStyle;curved=1;rounded=1;sketch=1;orthogonalLoop=1;jettySize=auto;html=1;labelBackgroundColor=none;strokeColor=#788AA3;fillColor=#B2C9AB;fontColor=#000000;" edge="1" parent="1" source="KJfpyNSeo73ol-OsRhbV-29" target="KJfpyNSeo73ol-OsRhbV-28">
          <mxGeometry x="-0.125" relative="1" as="geometry">
            <mxPoint as="offset" />
          </mxGeometry>
        </mxCell>
        <mxCell id="KJfpyNSeo73ol-OsRhbV-29" value="Iterator" style="html=1;fillColor=#f8cecc;strokeColor=#b85450;sketch=1;labelBackgroundColor=none;fontStyle=1" vertex="1" parent="1">
          <mxGeometry x="369" y="350" width="90" height="40" as="geometry" />
        </mxCell>
        <mxCell id="KJfpyNSeo73ol-OsRhbV-30" value="&lt;span style=&quot;color: rgb(0, 0, 0); font-family: &amp;quot;arial&amp;quot;; font-size: 15px; font-style: normal; letter-spacing: normal; text-indent: 0px; text-transform: none; word-spacing: 0px; display: inline; float: none;&quot;&gt;Mediator&lt;/span&gt;" style="html=1;fillColor=#f8cecc;strokeColor=#b85450;sketch=1;labelBackgroundColor=none;fontStyle=1" vertex="1" parent="1">
          <mxGeometry x="311" y="624" width="90" height="40" as="geometry" />
        </mxCell>
        <mxCell id="KJfpyNSeo73ol-OsRhbV-41" value="避免滞后" style="edgeStyle=orthogonalEdgeStyle;curved=1;rounded=1;sketch=1;orthogonalLoop=1;jettySize=auto;html=1;labelBackgroundColor=none;strokeColor=#788AA3;fillColor=#B2C9AB;fontColor=#000000;" edge="1" parent="1" source="KJfpyNSeo73ol-OsRhbV-31" target="KJfpyNSeo73ol-OsRhbV-28">
          <mxGeometry relative="1" as="geometry" />
        </mxCell>
        <mxCell id="KJfpyNSeo73ol-OsRhbV-42" value="使用组合命令" style="edgeStyle=orthogonalEdgeStyle;curved=1;rounded=1;sketch=1;orthogonalLoop=1;jettySize=auto;html=1;labelBackgroundColor=none;strokeColor=#788AA3;fillColor=#B2C9AB;fontColor=#000000;" edge="1" parent="1" source="KJfpyNSeo73ol-OsRhbV-31" target="KJfpyNSeo73ol-OsRhbV-24">
          <mxGeometry relative="1" as="geometry" />
        </mxCell>
        <mxCell id="KJfpyNSeo73ol-OsRhbV-31" value="&lt;span style=&quot;color: rgb(0, 0, 0); font-family: &amp;quot;arial&amp;quot;; font-size: 15px; font-style: normal; letter-spacing: normal; text-indent: 0px; text-transform: none; word-spacing: 0px; display: inline; float: none;&quot;&gt;Command&lt;/span&gt;" style="html=1;fillColor=#f8cecc;strokeColor=#b85450;sketch=1;labelBackgroundColor=none;fontStyle=1" vertex="1" parent="1">
          <mxGeometry x="180" y="270" width="90" height="40" as="geometry" />
        </mxCell>
        <mxCell id="KJfpyNSeo73ol-OsRhbV-67" value="&lt;div&gt;对复杂依赖&lt;/div&gt;&lt;div&gt;关系的管理&lt;br&gt;&lt;/div&gt;" style="edgeStyle=orthogonalEdgeStyle;curved=1;rounded=1;sketch=1;orthogonalLoop=1;jettySize=auto;html=1;exitX=0;exitY=0.5;exitDx=0;exitDy=0;entryX=1;entryY=0.5;entryDx=0;entryDy=0;labelBackgroundColor=none;startArrow=none;startFill=0;strokeColor=#788AA3;fillColor=#B2C9AB;fontColor=#000000;" edge="1" parent="1" source="KJfpyNSeo73ol-OsRhbV-32" target="KJfpyNSeo73ol-OsRhbV-30">
          <mxGeometry relative="1" as="geometry" />
        </mxCell>
        <mxCell id="KJfpyNSeo73ol-OsRhbV-32" value="&lt;span style=&quot;color: rgb(0, 0, 0); font-family: &amp;quot;arial&amp;quot;; font-size: 15px; font-style: normal; letter-spacing: normal; text-indent: 0px; text-transform: none; word-spacing: 0px; display: inline; float: none;&quot;&gt;Observer&lt;/span&gt;" style="html=1;fillColor=#f8cecc;strokeColor=#b85450;sketch=1;labelBackgroundColor=none;fontStyle=1" vertex="1" parent="1">
          <mxGeometry x="501" y="630" width="90" height="40" as="geometry" />
        </mxCell>
        <mxCell id="KJfpyNSeo73ol-OsRhbV-53" value="共享状态" style="edgeStyle=orthogonalEdgeStyle;curved=1;rounded=1;sketch=1;orthogonalLoop=1;jettySize=auto;html=1;exitX=0.5;exitY=0;exitDx=0;exitDy=0;labelBackgroundColor=none;strokeColor=#788AA3;fillColor=#B2C9AB;fontColor=#000000;" edge="1" parent="1" source="KJfpyNSeo73ol-OsRhbV-33" target="KJfpyNSeo73ol-OsRhbV-21">
          <mxGeometry x="-0.5" relative="1" as="geometry">
            <mxPoint as="offset" />
          </mxGeometry>
        </mxCell>
        <mxCell id="KJfpyNSeo73ol-OsRhbV-33" value="&lt;span style=&quot;color: rgb(0, 0, 0); font-family: &amp;quot;arial&amp;quot;; font-size: 15px; font-style: normal; letter-spacing: normal; text-indent: 0px; text-transform: none; word-spacing: 0px; display: inline; float: none;&quot;&gt;State&lt;/span&gt;" style="html=1;fillColor=#f8cecc;strokeColor=#b85450;sketch=1;labelBackgroundColor=none;fontStyle=1" vertex="1" parent="1">
          <mxGeometry x="60" y="624" width="90" height="40" as="geometry" />
        </mxCell>
        <mxCell id="KJfpyNSeo73ol-OsRhbV-58" value="改变内容" style="edgeStyle=orthogonalEdgeStyle;curved=1;rounded=1;sketch=1;orthogonalLoop=1;jettySize=auto;html=1;exitX=0.75;exitY=0;exitDx=0;exitDy=0;entryX=0.75;entryY=1;entryDx=0;entryDy=0;labelBackgroundColor=none;startArrow=none;startFill=0;strokeColor=#788AA3;fillColor=#B2C9AB;fontColor=#000000;" edge="1" parent="1" source="KJfpyNSeo73ol-OsRhbV-34" target="KJfpyNSeo73ol-OsRhbV-23">
          <mxGeometry relative="1" as="geometry" />
        </mxCell>
        <mxCell id="KJfpyNSeo73ol-OsRhbV-59" value="共享策略" style="edgeStyle=orthogonalEdgeStyle;curved=1;rounded=1;sketch=1;orthogonalLoop=1;jettySize=auto;html=1;exitX=1;exitY=0;exitDx=0;exitDy=0;entryX=0.25;entryY=1;entryDx=0;entryDy=0;labelBackgroundColor=none;startArrow=none;startFill=0;strokeColor=#788AA3;fillColor=#B2C9AB;fontColor=#000000;" edge="1" parent="1" source="KJfpyNSeo73ol-OsRhbV-34" target="KJfpyNSeo73ol-OsRhbV-21">
          <mxGeometry x="-0.0801" y="-5" relative="1" as="geometry">
            <mxPoint as="offset" />
          </mxGeometry>
        </mxCell>
        <mxCell id="KJfpyNSeo73ol-OsRhbV-34" value="&lt;span style=&quot;color: rgb(0, 0, 0); font-family: &amp;quot;arial&amp;quot;; font-size: 15px; font-style: normal; letter-spacing: normal; text-indent: 0px; text-transform: none; word-spacing: 0px; display: inline; float: none;&quot;&gt;Strategy&lt;/span&gt;" style="html=1;fillColor=#f8cecc;strokeColor=#b85450;sketch=1;labelBackgroundColor=none;fontStyle=1" vertex="1" parent="1">
          <mxGeometry x="-61" y="600" width="90" height="40" as="geometry" />
        </mxCell>
        <mxCell id="KJfpyNSeo73ol-OsRhbV-49" value="定义遍历" style="edgeStyle=orthogonalEdgeStyle;curved=1;rounded=1;sketch=1;orthogonalLoop=1;jettySize=auto;html=1;exitX=0.5;exitY=0;exitDx=0;exitDy=0;labelBackgroundColor=none;strokeColor=#788AA3;fillColor=#B2C9AB;fontColor=#000000;" edge="1" parent="1" source="KJfpyNSeo73ol-OsRhbV-35" target="KJfpyNSeo73ol-OsRhbV-29">
          <mxGeometry x="-0.5584" y="-4" relative="1" as="geometry">
            <mxPoint as="offset" />
          </mxGeometry>
        </mxCell>
        <mxCell id="KJfpyNSeo73ol-OsRhbV-35" value="&lt;span style=&quot;color: rgb(0, 0, 0); font-family: &amp;quot;arial&amp;quot;; font-size: 15px; font-style: normal; letter-spacing: normal; text-indent: 0px; text-transform: none; word-spacing: 0px; display: inline; float: none;&quot;&gt;Vistor&lt;/span&gt;" style="html=1;fillColor=#f8cecc;strokeColor=#b85450;sketch=1;labelBackgroundColor=none;fontStyle=1" vertex="1" parent="1">
          <mxGeometry x="291" y="494" width="90" height="40" as="geometry" />
        </mxCell>
      </root>
    </mxGraphModel>
  </diagram>
</mxfile>
